<mxfile host="app.diagrams.net" modified="2021-12-20T20:54:06.838Z" agent="5.0 (Windows NT 6.1; Win64; x64) AppleWebKit/537.36 (KHTML, like Gecko) Chrome/96.0.4664.110 Safari/537.36" etag="fTssJubL8HRi5LNTkX7c" version="16.0.0" type="github">
  <diagram id="rJHmTFbt23OQRNdXKMWi" name="Page-1">
    <mxGraphModel dx="1102" dy="614" grid="1" gridSize="10" guides="1" tooltips="1" connect="1" arrows="1" fold="1" page="1" pageScale="1" pageWidth="850" pageHeight="1100" background="#FCE7CD" math="0" shadow="0">
      <root>
        <mxCell id="0" />
        <mxCell id="1" parent="0" />
        <mxCell id="On6_evThupUvLIn3l62g-2" value="Web Portal" style="shape=umlLifeline;perimeter=lifelinePerimeter;whiteSpace=wrap;html=1;container=1;collapsible=0;recursiveResize=0;outlineConnect=0;lifelineDashed=0;fillColor=#182E3E;strokeColor=#FFFFFF;fontColor=#FFFFFF;" vertex="1" parent="1">
          <mxGeometry x="200" y="110" width="120" height="390" as="geometry" />
        </mxCell>
        <mxCell id="On6_evThupUvLIn3l62g-10" value="" style="html=1;points=[];perimeter=orthogonalPerimeter;rounded=0;sketch=0;fontColor=#FFFFFF;strokeColor=#FFFFFF;fillColor=#182E3E;" vertex="1" parent="On6_evThupUvLIn3l62g-2">
          <mxGeometry x="55" y="60" width="10" height="60" as="geometry" />
        </mxCell>
        <mxCell id="On6_evThupUvLIn3l62g-3" value="Analyst" style="shape=umlLifeline;participant=umlActor;perimeter=lifelinePerimeter;whiteSpace=wrap;html=1;container=1;collapsible=0;recursiveResize=0;verticalAlign=top;spacingTop=36;outlineConnect=0;rounded=0;sketch=0;fontColor=#FFFFFF;strokeColor=#FFFFFF;fillColor=#182E3E;" vertex="1" parent="1">
          <mxGeometry x="40" y="80" width="40" height="390" as="geometry" />
        </mxCell>
        <mxCell id="On6_evThupUvLIn3l62g-6" value="" style="html=1;points=[];perimeter=orthogonalPerimeter;rounded=0;sketch=0;fontColor=#FFFFFF;strokeColor=#FFFFFF;fillColor=#182E3E;" vertex="1" parent="On6_evThupUvLIn3l62g-3">
          <mxGeometry x="15" y="80" width="10" height="290" as="geometry" />
        </mxCell>
        <mxCell id="On6_evThupUvLIn3l62g-4" value="ML module" style="shape=umlLifeline;perimeter=lifelinePerimeter;whiteSpace=wrap;html=1;container=1;collapsible=0;recursiveResize=0;outlineConnect=0;lifelineDashed=0;fillColor=#182E3E;strokeColor=#FFFFFF;fontColor=#FFFFFF;" vertex="1" parent="1">
          <mxGeometry x="680" y="160" width="120" height="390" as="geometry" />
        </mxCell>
        <mxCell id="On6_evThupUvLIn3l62g-5" value="Database" style="shape=umlLifeline;perimeter=lifelinePerimeter;whiteSpace=wrap;html=1;container=1;collapsible=0;recursiveResize=0;outlineConnect=0;lifelineDashed=0;fillColor=#182E3E;strokeColor=#FFFFFF;fontColor=#FFFFFF;" vertex="1" parent="1">
          <mxGeometry x="440" y="120" width="120" height="390" as="geometry" />
        </mxCell>
        <mxCell id="On6_evThupUvLIn3l62g-11" value="" style="html=1;points=[];perimeter=orthogonalPerimeter;rounded=0;sketch=0;fontColor=#FFFFFF;strokeColor=#FFFFFF;fillColor=#182E3E;" vertex="1" parent="On6_evThupUvLIn3l62g-5">
          <mxGeometry x="55" y="70" width="10" height="80" as="geometry" />
        </mxCell>
        <mxCell id="On6_evThupUvLIn3l62g-7" value="Create new account" style="html=1;verticalAlign=bottom;startArrow=oval;startFill=1;endArrow=block;startSize=8;rounded=1;sketch=0;strokeColor=#23445D;curved=0;" edge="1" parent="1">
          <mxGeometry width="60" relative="1" as="geometry">
            <mxPoint x="80" y="170" as="sourcePoint" />
            <mxPoint x="230" y="170" as="targetPoint" />
          </mxGeometry>
        </mxCell>
        <mxCell id="On6_evThupUvLIn3l62g-8" value="return" style="html=1;verticalAlign=bottom;endArrow=open;dashed=1;endSize=8;rounded=1;sketch=0;strokeColor=#23445D;curved=0;" edge="1" parent="1">
          <mxGeometry relative="1" as="geometry">
            <mxPoint x="250" y="230" as="sourcePoint" />
            <mxPoint x="120" y="230" as="targetPoint" />
          </mxGeometry>
        </mxCell>
        <mxCell id="On6_evThupUvLIn3l62g-9" value="Save analysts information" style="html=1;verticalAlign=bottom;startArrow=oval;startFill=1;endArrow=block;startSize=8;rounded=1;sketch=0;strokeColor=#23445D;curved=0;entryX=0;entryY=0.013;entryDx=0;entryDy=0;entryPerimeter=0;exitX=1.1;exitY=0.267;exitDx=0;exitDy=0;exitPerimeter=0;" edge="1" parent="1" source="On6_evThupUvLIn3l62g-10" target="On6_evThupUvLIn3l62g-11">
          <mxGeometry width="60" relative="1" as="geometry">
            <mxPoint x="260" y="191" as="sourcePoint" />
            <mxPoint x="469.5" y="190" as="targetPoint" />
          </mxGeometry>
        </mxCell>
      </root>
    </mxGraphModel>
  </diagram>
</mxfile>
